<?xml version="1.0" encoding="iso-8859-1"?>
<!-- Uploaded to: SVG Repo, www.svgrepo.com, Generator: SVG Repo Mixer Tools -->
<svg height="800px" width="800px" version="1.1" id="Layer_1" xmlns="http://www.w3.org/2000/svg" xmlns:xlink="http://www.w3.org/1999/xlink" 
	 viewBox="0 0 392.598 392.598" xml:space="preserve">
<path style="fill:#FFFFFF;" d="M370.747,119.834c0-54.044-40.404-98.004-90.053-98.004c-36.461,0-61.026,11.313-75.119,34.457
	c-4.655,6.594-13.188,7.24-18.618,0c-14.093-23.208-38.659-34.457-75.119-34.457c-49.713,0-90.117,43.96-90.117,98.004
	c0,79.903,140.477,215.467,174.416,247.014C230.141,334.848,370.747,197.475,370.747,119.834z"/>
<path style="fill:#194F82;" d="M280.695,0.044c-37.301,0-65.681,10.796-84.428,32.194C177.519,10.84,149.139,0.044,111.838,0.044
	C50.166,0.044,0,53.766,0,119.834c0,100.073,181.269,263.111,189.026,269.964c4.848,3.685,9.762,3.685,14.61-0.065
	c7.758-6.982,188.962-172.477,188.962-269.899C392.533,53.766,342.368,0.044,280.695,0.044z M21.786,119.834
	c0-54.044,40.404-98.004,90.053-98.004c36.461,0,61.026,11.313,75.119,34.457c5.43,7.24,13.964,6.594,18.618,0
	c14.093-23.208,38.659-34.457,75.119-34.457c49.713,0,90.053,43.96,90.053,98.004c0,77.64-140.606,215.079-174.481,247.014
	C162.263,335.236,21.786,199.737,21.786,119.834z"/>
<path style="fill:#FFC10D;" d="M280.695,43.616c-37.56,0-50.23,13.705-56.501,23.984l0,0c-12.735,20.945-43.184,20.945-55.855,0
	c-6.271-10.279-18.941-23.984-56.501-23.984c-37.624,0-68.202,34.133-68.202,76.089c0,53.333,86.109,153.535,152.566,217.147
	c69.56-67.491,152.76-167.822,152.76-217.147C348.962,77.879,318.255,43.616,280.695,43.616z"/>
<g>
	<path style="fill:#56ACE0;" d="M268.994,207.883c0-10.667-8.663-19.329-19.329-19.329s-19.329,8.663-19.329,19.329
		s8.663,19.329,19.329,19.329S268.994,218.549,268.994,207.883z"/>
	<path style="fill:#56ACE0;" d="M179.717,149.572c1.164-4.913,5.56-8.339,10.602-8.339h2.133v-7.046h-2.133
		c-5.042,0-9.438-3.491-10.602-8.339c-1.228-5.236-3.297-10.279-6.206-14.933c-2.651-4.331-2.004-9.891,1.552-13.446l1.552-1.552
		l-4.913-4.978l-1.551,1.552c-3.556,3.556-9.115,4.267-13.446,1.552c-4.655-2.844-9.632-4.913-14.933-6.206
		c-4.913-1.164-8.339-5.56-8.339-10.602v-2.327h-7.046v2.133c0,5.042-3.491,9.438-8.404,10.602
		c-5.236,1.228-10.279,3.297-14.933,6.206c-4.331,2.651-9.891,2.004-13.446-1.552l-1.552-1.552l-4.978,4.978l1.552,1.552
		c3.556,3.556,4.267,9.115,1.552,13.446c-2.844,4.655-4.913,9.632-6.206,14.933c-1.164,4.913-5.56,8.339-10.602,8.339h-2.263v7.046
		h2.133c5.042,0,9.438,3.491,10.602,8.339c1.228,5.236,3.297,10.279,6.206,14.933c2.651,4.331,2.004,9.891-1.552,13.446
		l-1.552,1.552l4.978,4.913l1.552-1.552c3.556-3.556,9.115-4.267,13.446-1.551c4.655,2.844,9.632,4.913,14.933,6.206
		c4.913,1.164,8.339,5.56,8.339,10.602v2.133h7.046v-2.133c0-5.042,3.491-9.438,8.339-10.602c5.236-1.228,10.279-3.297,14.933-6.206
		c4.331-2.651,9.826-2.004,13.446,1.551l1.552,1.552l4.913-4.913l-1.552-1.552c-3.556-3.556-4.267-9.115-1.552-13.446
		C176.42,159.85,178.489,154.808,179.717,149.572z"/>
</g>
<path style="fill:#FFFFFF;" d="M129.875,116.473c-11.636,0-21.075,9.503-21.075,21.075s9.503,21.075,21.075,21.075
	c11.636,0,21.075-9.503,21.075-21.075S141.576,116.473,129.875,116.473z"/>
<g>
	<path style="fill:#194F82;" d="M295.887,197.022h-6.594c-0.905-3.297-2.263-6.465-3.879-9.438l4.655-4.655
		c4.267-4.267,4.267-11.119,0-15.451c-4.267-4.267-11.119-4.267-15.451,0l-4.655,4.655c-2.909-1.681-6.077-3.038-9.438-3.879v-6.594
		c0-6.012-4.848-10.925-10.925-10.925c-6.012,0-10.925,4.848-10.925,10.925v6.594c-3.297,0.905-6.465,2.263-9.438,3.879
		l-4.655-4.655c-4.267-4.267-11.119-4.267-15.451,0c-4.267,4.267-4.267,11.119,0,15.451l4.655,4.655
		c-1.681,2.909-3.038,6.077-3.879,9.438h-6.594c-6.012,0-10.925,4.848-10.925,10.925c0,6.012,4.848,10.925,10.925,10.925h6.594
		c0.905,3.297,2.263,6.465,3.879,9.438l-4.655,4.655c-4.267,4.267-4.267,11.119,0,15.451c4.267,4.267,11.119,4.267,15.451,0
		l4.655-4.655c2.909,1.681,6.077,3.038,9.438,3.879v6.594c0,6.012,4.848,10.925,10.925,10.925c6.012,0,10.925-4.848,10.925-10.925
		v-6.594c3.297-0.905,6.465-2.263,9.438-3.879l4.655,4.655c4.267,4.267,11.119,4.267,15.451,0c4.267-4.267,4.267-11.119,0-15.451
		l-4.655-4.655c1.681-2.909,3.038-6.077,3.879-9.438h6.594c6.012,0,10.925-4.848,10.925-10.925
		C306.747,201.871,301.899,197.022,295.887,197.022z M249.665,227.212c-10.667,0-19.329-8.663-19.329-19.329
		s8.663-19.329,19.329-19.329s19.329,8.663,19.329,19.329S260.331,227.212,249.665,227.212z"/>
	<path style="fill:#194F82;" d="M199.822,171.745l-3.556-3.556c0.776-1.681,1.551-3.491,2.133-5.236h5.042
		c6.012,0,10.925-4.848,10.925-10.925v-28.832c0-6.012-4.848-10.925-10.925-10.925H198.4c-0.646-1.745-1.422-3.491-2.133-5.236
		l3.556-3.556c4.267-4.267,4.267-11.119,0-15.451l-20.428-20.364c-4.461-4.202-11.055-4.267-15.451,0l-3.556,3.556
		c-1.681-0.776-3.491-1.552-5.236-2.133v-5.042c0-6.012-4.848-10.925-10.925-10.925h-28.768c-6.012,0-10.925,4.848-10.925,10.925
		v5.042c-1.745,0.646-3.491,1.422-5.236,2.133l-3.556-3.556c-4.073-4.073-11.378-4.073-15.451,0L59.992,88.158
		c-4.267,4.267-4.267,11.119,0,15.451l3.556,3.556c-0.776,1.681-1.552,3.491-2.133,5.236h-5.042
		c-6.012,0-10.925,4.848-10.925,10.925v28.832c0,6.012,4.848,10.925,10.925,10.925h5.042c0.646,1.745,1.422,3.491,2.133,5.236
		l-3.556,3.556c-4.267,4.267-4.267,11.119,0,15.451l20.428,20.428c4.978,4.396,11.378,4.202,15.451,0l3.556-3.556
		c1.681,0.776,3.491,1.552,5.236,2.133v5.042c0,6.012,4.848,10.925,10.925,10.925h28.832c6.012,0,10.925-4.848,10.925-10.925v-5.042
		c1.745-0.646,3.491-1.422,5.236-2.133l3.556,3.556c4.073,4.073,11.378,4.073,15.451,0l20.428-20.428
		C204.089,182.929,204.089,176.012,199.822,171.745z M192.582,141.168h-2.133c-5.042,0-9.438,3.491-10.602,8.339
		c-1.228,5.236-3.297,10.279-6.206,14.933c-2.651,4.331-2.004,9.891,1.552,13.446l1.551,1.552l-4.913,4.913l-1.552-1.552
		c-3.556-3.556-9.115-4.267-13.446-1.552c-4.655,2.844-9.632,4.913-14.933,6.206c-4.913,1.164-8.339,5.56-8.339,10.602v2.133h-7.046
		v-2.133c0-5.042-3.491-9.438-8.339-10.602c-5.236-1.228-10.279-3.297-14.933-6.206c-4.331-2.65-9.891-2.004-13.446,1.552
		l-1.552,1.552l-4.913-4.913l1.552-1.552c3.556-3.556,4.267-9.115,1.552-13.446c-2.844-4.655-4.978-9.632-6.206-14.933
		c-1.164-4.913-5.56-8.339-10.602-8.339h-2.392v-7.046h2.133c5.042,0,9.438-3.491,10.602-8.339
		c1.228-5.236,3.297-10.279,6.206-14.933c2.651-4.331,2.004-9.891-1.552-13.446l-1.552-1.552l4.978-4.913l1.552,1.552
		c3.556,3.556,9.115,4.267,13.446,1.552c4.655-2.844,9.632-4.978,14.933-6.206c4.913-1.164,8.404-5.56,8.404-10.602V74.97h7.046
		v2.133c0,5.042,3.491,9.438,8.339,10.602c5.236,1.228,10.279,3.297,14.933,6.206c4.331,2.651,9.891,2.004,13.446-1.552l1.551-1.552
		l4.913,4.978l-1.552,1.552c-3.556,3.556-4.267,9.115-1.552,13.446c2.844,4.655,4.913,9.632,6.206,14.933
		c1.164,4.913,5.56,8.339,10.602,8.339h2.133v7.111H192.582z"/>
	<path style="fill:#194F82;" d="M129.875,94.687c-23.661,0-42.99,19.265-42.99,42.99s19.265,42.99,42.99,42.99
		s42.99-19.265,42.99-42.99S153.535,94.687,129.875,94.687z M129.875,158.751c-11.636,0-21.075-9.503-21.075-21.075
		s9.503-21.075,21.075-21.075c11.572,0,21.075,9.503,21.075,21.075S141.576,158.751,129.875,158.751z"/>
</g>
</svg>