<?xml version="1.0" encoding="UTF-8"?>
<!-- Created with Inkscape by Vulphere (http://www.inkscape.org/ and https://en.wikipedia.org/wiki/User:Vulphere) -->
<svg width="267.544" height="95.59087" version="1.1" viewBox="0 0 267.544 95.59087" xmlns="http://www.w3.org/2000/svg">
<title>Honda Racing Corporation logo</title>
<desc>Motorsport programme of Honda Motor Company</desc>
 <g transform="translate(853.0154 -936.3379)">
  <g transform="matrix(.1976118 0 0 .1976118 -684.4495 751.3065)">
   <path d="m-842.2523 1386.643v-33.3334h14.5701l0.76324 26h66.66666l0.38162-13 0.38161-13h14.57011v66.6667h-14.66667v-28h-68v28h-14.66667zm124.4244 31.4129c-3.14736-1.3905-4.60804-3.1913-5.65923-6.977-1.82996-6.5901-1.82928-28.9509 1e-3 -35.5424 2.34613-8.4491 4.73991-8.8935 47.90048-8.8935 39.74933 0 44.79682 0.6815 47.89268 6.4661 0.82805 1.5473 1.44065 10.3515 1.44065 20.7052 0 17.1166-0.16011 18.1995-3.21629 21.7543l-3.21624 3.741-40.45036 0.3103c-32.3712 0.2484-41.29769-0.064-44.69269-1.564zm76.24232-24.7463v-14h-68l-0.38645 12.5667c-0.21255 6.9116-0.0775 13.372 0.30029 14.3563 0.55459 1.4452 7.17271 1.7211 34.38645 1.4333l33.69971-0.3563zm36.66666-0.051v-26.7177l44.56096 0.3844 44.56096 0.3845 6.87808 6.4648v46.2018h-13.33333v-19.8573c0-16.8773-0.31651-19.9788-2.10905-20.6667-1.15998-0.4452-16.75998-0.8094-34.66667-0.8094h-32.55761v41.3334h-13.33334zm124.476 25.3957c-6.11977-2.4697-7.14267-6.0588-7.14267-25.0623 0-10.1944 0.61515-18.9403 1.44066-20.4828 3.07718-5.7498 8.23056-6.4662 46.51652-6.4662h36.04282v-20h13.33334v73.3334l-43.66667-0.085c-24.01667-0.046-44.95247-0.6034-46.524-1.2376zm76.56911-25.0112-0.37844-14.3334h-68l-0.38646 12.5667c-0.21254 6.9116-0.0813 13.3616 0.29148 14.3333 0.53836 1.403 7.69607 1.7667 34.76491 1.7667h34.08695zm40.8211 24.4294c-5.11203-2.2254-5.86621-4.1184-5.86621-14.7241 0-6.2913 0.64172-9.2029 2.54732-11.5576l2.5473-3.1477 80.39924-0.7796-0.8272-8.5538-74-0.7088v-12.102l81.56768 0.8108 3.21616 3.7411c3.1256 3.6356 3.21616 4.3772 3.21616 26.3333v22.5923l-44.33333-0.052c-34.18857-0.04-45.27927-0.464-48.46712-1.8517zm79.46712-14.1179v-5.3551l-71.33333 0.7102-0.44011 3.8554c-0.24996 2.1897 0.32605 4.341 1.33333 4.9796 0.9754 0.6183 17.22344 1.1334 36.10678 1.1446l34.33333 0.02zm66.66666-17.3115v-33.3334h43.24654c26.69478 0 44.6415 0.5304 46.89134 1.3858 6.1884 2.3528 7.10718 4.8456 7.15306 19.4076 0.0563 17.8642-0.38886 18.2968-19.76234 19.2066l-14.19526 0.6667 20.2469 12.6667 20.24692 12.6666-23.25594 0.7592-18.3471-12.3296-18.34708-12.3296 0.39482-6.05 0.39481-6.05 18.66667-0.6666 18.66666-0.6667v-14.6667l-67.33333-0.7124v53.3791h-14.66667zm114.8423 30.3333c4.490107-8.4044 35.27347-58.0748 37.59831-60.6667 2.48494-2.7703 3.82726-3 17.53698-3 9.8698 0 15.54884 0.5587 16.94267 1.6667 1.88317 1.497 39.74644 62.8055 39.74644 64.3577 0 0.3533-3.8654 0.6423-8.5898 0.6423h-8.5897l-3.7436-6.6653-3.74358-6.6653h-32.05323l-32.05322-1e-3 -3.89355 6.6667-3.89355 6.6666h-8.43346c-8.331837 0-8.414157-0.036-6.830707-3zm76.27585-28.6667c-2.01352-3.4833-5.83928-9.9333-8.50168-14.3333l-4.84074-8h-15.65536l-5.86011 10c-3.22307 5.5-7.04908 11.95-8.50225 14.3333l-2.64215 4.3334h49.66324zm54.72765 29.7542c-2.6857-1.169-4.6888-3.3418-5.6667-6.1468-1.9703-5.6521-1.9971-44.819-0.034-50.4489 2.7521-7.8948 4.4471-8.1585 52.4559-8.1585h43.3995v13.3334h-81.3333v40h81.3333v13.3333l-43-0.052c-33.1701-0.04-43.9497-0.4655-47.1542-1.8603zm111.4875-31.4208v-33.3334h16v66.6667h-16zm36.31 0.3333 0.3567-33 10.6622-0.3953c5.8642-0.2175 11.9588-0.07 13.5435 0.3278 1.5848 0.3978 13.8868 12.723 27.3378 27.3895 13.8867 15.1415 25.4649 26.6688 26.7898 26.6721 2.1465 0.01 2.3333-2.1823 2.3333-27.3274v-27.3334h14.6667v32.5241c0 28.4276-0.2656 32.6259-2.109 33.3333-2.7685 1.0624-21.0575 1.0455-23.8393-0.022-1.1916-0.4572-13.0151-12.6072-26.2745-27-16.8004-18.2363-24.9673-26.1687-26.9426-26.1687-2.7854 0-2.8409 0.4691-3.1955 27l-0.361 27h-13.3247zm124.1144 31.0505c-3.1586-1.3738-4.6043-3.1487-5.6593-6.9479-1.8221-6.5619-1.8433-42.234-0.029-48.7671 2.4557-8.8427 3.3982-9.0022 53.1976-9.0022h44.0662v13.3334h-82.6666v40h68v-14.6667h-46.6666v-12h61.3333v40l-43.6667-0.052c-34.1626-0.041-44.59-0.4538-47.9089-1.8974z" fill="#1a1a1a" stroke-width="1.33333"/>
   <g transform="translate(-965.8082 1400.074)">
    <path d="m112.7929-69.4077c0-0.563105 25.2392-89.34087 56.08713-197.284l56.08716-196.2602 92.13896-0.34058c50.67645-0.18741 92.13897-0.0229 92.13897 0.36525 0 0.54421-32.00672 113.512-35.22451 124.3251-0.65726 2.20867 3.20941 2.314 72.99618 1.98942l73.69021-0.34278 11.07421-36.4726c6.09082-20.06 14.75735-48.58576 19.25893-63.3906l8.18473-26.91793 154.9591 0.49577c136.3714 0.43627 156.0703 0.75119 164.2232 2.62552 22.54018 5.18205 36.77422 12.6337 52.82259 27.65322 17.92175 16.77268 29.98847 37.35938 35.23529 60.11324 2.26647 9.82922 2.74062 15.46584 2.38301 28.32982-0.24562 8.83252-0.0819 15.63971 0.36571 15.12704 0.44675-0.51258 3.88641-5.55317 7.64387-11.20133 19.54636-29.38181 49.25714-58.42392 81.15964-79.33301 38.1755-25.02051 75.671-38.21692 120.1509-42.28697 9.451-0.86481 67.0103-1.39439 151.8654-1.39718 115.8628 0 136.646 0.27624 136.646 1.84142 0 1.52597-17.8565 61.74764-34.5173 116.4118l-3.9069 12.81871-108.1699 0.61025c-118.4236 0.66825-120.4505 0.79508-139.2535 8.71227-25.0361 10.54151-45.5232 31.83675-54.5246 56.67572-3.9666 10.94578-4.0448 29.20269-0.1616 37.83894 3.6971 8.22275 11.1968 16.29839 18.3663 19.7765 15.0512 7.30177 10.9066 7.05705 132.9145 7.84517 112.2042 0.72483 113.1515 0.75329 112.7452 3.38349-0.225 1.45895-8.2733 31.00181-17.8848 65.65082l-17.4759 62.99828h-287.1694c-303.7111 0-296.5476 0.135881-320.4625-6.079174-44.85832-11.65788-77.92128-49.74449-84.5275-97.37056-0.88764-6.39935-1.44609-4.79817-15.95843 45.75662-8.27121 28.81333-15.63722 53.73078-16.36888 55.37205l-1.33028 2.984132h-91.34626c-72.21221 0-91.34624-0.347346-91.34624-1.658384 0-0.912149 8.33772-30.90231 18.52826-66.64489 10.19055-35.74258 18.52827-65.43436 18.52827-65.98184 0-0.54737-32.90422-0.98894-73.12049-0.98128l-73.12047 0.014-16.47987 55.35804c-9.06394 30.44695-18.17368 60.87878-20.24389 67.62619l-3.764 12.26812h-91.91829c-50.55506-1.32e-4 -91.91828-0.460774-91.91828-1.023791zm822.693-149.8418c0.16344-16.22309 2.54847-33.69377 6.4063-46.92717l1.7915-6.14543-8.27795 8.13484c-5.3294 5.23723-22.21956 17.34693-47.41776 33.99727-21.52698 14.22433-39.18906 26.31005-39.24909 26.85713-0.0597 0.5471 19.39515 0.99412 43.23375 0.99342h43.34284zm-224.7707-62.28817c5.61097-4.23239 24.34613-16.86758 41.63366-28.07815s31.43194-20.91256 31.43194-21.56003c0-0.66685-17.05563-1.02484-39.3428-0.82579l-39.34276 0.35132-10.77023 38.21433-10.77023 38.21444 8.4793-9.31048c4.66363-5.12066 13.07011-12.77325 18.68112-17.00564z" fill="#fff" stroke-width="1.32486"/>
    <path d="m188.9296-278.9609c0-1.16513 40.77619-144.3922 47.33764-166.2744l2.09899-7h75.94838c43.4838 0 75.9483 0.50723 75.9483 1.18663 0 0.9487-32.6847 115.7393-35.4462 124.4893-0.701 2.2212 3.9716 2.32485 90.1526 2l90.8919-0.34261 17.87-58.66666c9.8285-32.26668 18.492-60.91668 19.2523-63.66668l1.3822-5h145.1855c149.1869 0 157.3278 0.25243 173.8741 5.39158 18.3301 5.69318 37.1516 20.65264 49.6861 39.4909 25.3842 38.14998 22.4024 88.74861-7.2558 123.1294l-5.7406 6.65474h-199.1378l5.3096-3.61438c2.9202-1.9879 18.2094-11.94834 33.9761-22.1343 15.7667-10.18595 30.0268-19.77355 31.6891-21.30578 7.0859-6.53128 6.7452-17.78839-0.716-23.6574-3.1796-2.50103-5.6402-2.62148-53.555-2.62148h-50.2223l-10.4447 36.66667-10.4446 36.66667h-243.8199c-168.5374 0-243.8199-0.42988-243.8199-1.39226zm778.6666 0.22651c0-2.44941 9.7403-25.27564 14.8643-34.83425 33.60457-62.68831 98.86857-114.6948 164.7581-131.29 31.5716-7.95173 42.9819-8.35427 218.5429-7.71l90.8319 0.33332-15.1652 50.23735c-8.3409 27.63054-15.1653 50.39771-15.1653 50.59371s-47.85 0.58328-106.3333 0.86062c-116.9995 0.55484-113.6583 0.33188-136.4469 9.10557-24.7753 9.53855-51.2063 34.65296-60.6614 57.63967l-2.5584 6.21975-76.3333 5e-3c-42.689 3e-3 -76.33337-0.50881-76.33337-1.16076z" fill="#e60021"/>
    <path d="m133.7989-85.98632c0-1.16516 40.77619-144.3922 47.33768-166.2744l2.09896-7.00002h488.9114l-24.9579 86.99998-24.9578 87-76.7862 0.34432-76.7863 0.34393 2.1771-7.67743c1.1973-4.2226 9.769-34.07746 19.0481-66.34412s16.4717-59.12096 15.9835-59.67621c-0.4881-0.55521-40.9793-0.85523-89.9802-0.66667l-89.0927 0.3428-20.1645 66.99829-20.1644 66.99832-76.33335 9.9e-4c-52.15491 2e-3 -76.33335-0.43892-76.33335-1.39019zm652 0.50902c-2.5667-0.25096-9.4667-1.1006-15.3334-1.88783-41.2145-5.53062-72.3881-31.95791-84.8478-71.92925-4.0536-13.00411-4.408-39.78766-0.7053-53.29969 3.2865-11.99324 11.6916-28.41175 19.6239-38.33331l6.6625-8.33337 99.6334 9.4e-4 99.6334 9.5e-4 -36 23.988c-37.6371 25.07887-41.5011 28.56586-39.806 35.92195 0.4336 1.88183 2.5284 5.2215 4.6551 7.42148l3.8666 4.00003 116.3049 0.7491-0.8141-5.09102c-2.8966-18.11486-2.1656-41.28307 1.9009-60.24471l1.4469-6.74649h153.4568l-0.8455 7.66669c-2.5886 23.4741 10.1056 46.98881 30.501 56.49984 20.4533 9.53801 32.8309 10.43176 145 10.4699 59.296 0.0189 89 0.48188 89 1.38345 0 0.74427-6 22.93531-13.3333 49.31347-7.3333 26.37811-13.3333 48.26917-13.3333 48.64675 0 0.74615-559.0114 0.55211-566.6667-0.19654z" fill="#192a4e"/>
   </g>
  </g>
 </g>
</svg>
